<?xml version="1.0" encoding="UTF-8"?>
<svg id="Capa_1" xmlns="http://www.w3.org/2000/svg" version="1.1" viewBox="0 0 1664 711">
  <!-- Generator: Adobe Illustrator 29.0.0, SVG Export Plug-In . SVG Version: 2.1.0 Build 186)  -->
  <defs>
    <style>
      .st0 {
        fill: #5f369a;
      }
    </style>
  </defs>
  <path class="st0" d="M1664,0h-178.7l-300.9,415.6c-33.4,46.2-23.1,110.7,23.1,144.1h0c46.2,33.5,110.7,23.1,144.1-23l312.3-431.5V0Z"/>
  <path class="st0" d="M1664,199.6l-183,252.9c-33.4,46.2-23.1,110.7,23.1,144.1h0c46.2,33.5,110.7,23.1,144.1-23l15.8-21.8V199.6Z"/>
  <path class="st0" d="M1152,192.2h0c-46.2-33.5-110.7-23.1-144.1,23l-358.9,495.8h254.9l271.3-374.7c33.4-46.2,23.1-110.7-23.1-144.1Z"/>
  <path class="st0" d="M1176.8,602.4h0c-46.2-33.5-110.7-23.1-144.1,23l-62,85.6h245.8c9.9-39.7-4.5-83.2-39.6-108.6Z"/>
  <path class="st0" d="M1329.4,662.2l-35.3,48.8h221.6c-3.2-27.8-17.6-54.2-42-71.9h0c-46.2-33.5-110.7-23.1-144.1,23Z"/>
  <path class="st0" d="M1163,0l-4,5.5c-33.4,46.2-23.1,110.7,23.1,144.2h0c46.2,33.4,110.7,23.1,144.2-23.1L1418,0h-254.9Z"/>
</svg>