<?xml version="1.0" encoding="UTF-8"?>
<svg id="Capa_1" xmlns="http://www.w3.org/2000/svg" version="1.1" viewBox="0 0 280 75">
  <!-- Generator: Adobe Illustrator 29.0.0, SVG Export Plug-In . SVG Version: 2.1.0 Build 186)  -->
  <defs>
    <style>
      .st0 {
        fill: #fff;
      }
    </style>
  </defs>
  <path class="st0" d="M241.4,66.5c2.4-1.1,4.2-3.1,5.2-5.5.9-2.4.8-5.2-.2-7.5l-13.2-29.4-4.8-10.7c-1.1-2.4-3-4.2-5.5-5.2-2.4-.9-5.2-.8-7.5.2-2.4,1.1-4.2,3.1-5.2,5.5-.9,2.4-.8,5.1.2,7.5l7.2,15.9,10.9,24.2c1.1,2.4,3,4.2,5.5,5.2,2.4.9,5.2.8,7.5-.2Z"/>
  <path class="st0" d="M261.9,33.4c-2.6,0-5.1,1-7,2.9-1.8,1.8-2.9,4.4-2.9,7v14c0,2.6,1,5.1,2.9,7,1.7,1.7,4,2.7,6.4,2.9h1.1c2.4-.1,4.7-1.1,6.4-2.9,1.8-1.8,2.9-4.4,2.9-7v-14c0-2.6-1-5.1-2.9-7s-4.4-2.9-7-2.9Z"/>
  <path class="st0" d="M261.9,7.8c-5.4,0-9.9,4.4-9.9,9.9s4.4,9.9,9.9,9.9,9.9-4.4,9.9-9.9-4.4-9.9-9.9-9.9Z"/>
  <circle class="st0" cx="204.8" cy="57.2" r="9.9" transform="translate(-7.7 48.6) rotate(-13.3)"/>
  <path class="st0" d="M62.3,26.1h-9.7l-1.7,4.7h-4l8.3-23.2h4.4l8.3,23.2h-4l-1.7-4.7ZM61.2,23l-3.8-10.8-3.8,10.8h7.6Z"/>
  <path class="st0" d="M70.3,21.6c0-1.9.4-3.5,1.1-5,.8-1.4,1.8-2.5,3.2-3.3,1.4-.8,2.9-1.2,4.7-1.2s4.1.5,5.5,1.6c1.5,1.1,2.4,2.6,3,4.5h-4.1c-.3-.9-.9-1.6-1.6-2.1-.7-.5-1.6-.8-2.8-.8-1.6,0-2.8.6-3.7,1.7-.9,1.1-1.4,2.6-1.4,4.6s.5,3.5,1.4,4.6c.9,1.1,2.2,1.7,3.7,1.7s3.6-1,4.4-2.9h4.1c-.5,1.9-1.5,3.4-3,4.5-1.5,1.1-3.3,1.6-5.5,1.6s-3.3-.4-4.7-1.2c-1.3-.8-2.4-1.9-3.2-3.3-.8-1.4-1.1-3.1-1.1-5Z"/>
  <path class="st0" d="M96,15.6v10.2c0,.7.2,1.2.5,1.5.3.3.9.4,1.6.4h2.4v3.2h-3c-1.7,0-3-.4-3.9-1.2-.9-.8-1.4-2.1-1.4-3.9v-10.2h-2.2v-3.1h2.2v-4.6h3.8v4.6h4.5v3.1h-4.5Z"/>
  <path class="st0" d="M102.7,21.6c0-1.8.4-3.5,1.1-4.9.8-1.4,1.8-2.5,3.1-3.3,1.3-.8,2.8-1.2,4.4-1.2s2.7.3,3.8.9c1.1.6,1.9,1.3,2.6,2.1v-2.7h3.8v18.4h-3.8v-2.7c-.6.9-1.5,1.6-2.6,2.2-1.1.6-2.4.9-3.8.9s-3-.4-4.3-1.2c-1.3-.8-2.3-1.9-3.1-3.4-.8-1.5-1.1-3.1-1.1-5ZM117.7,21.6c0-1.3-.3-2.4-.8-3.3-.5-.9-1.2-1.7-2-2.1-.8-.5-1.8-.7-2.7-.7s-1.9.2-2.8.7c-.8.5-1.5,1.2-2,2.1-.5.9-.8,2-.8,3.3s.3,2.4.8,3.3c.5,1,1.2,1.7,2.1,2.2.9.5,1.8.8,2.7.8s1.9-.2,2.7-.7c.8-.5,1.5-1.2,2-2.2.5-.9.8-2,.8-3.3Z"/>
  <path class="st0" d="M133.2,31.1c-1.4,0-2.7-.3-3.9-.8-1.1-.5-2-1.2-2.7-2.1-.7-.9-1-1.9-1.1-3h3.9c0,.8.4,1.4,1.1,2,.7.5,1.5.8,2.6.8s1.9-.2,2.5-.6c.6-.4.9-.9.9-1.6s-.3-1.2-1-1.5c-.7-.3-1.7-.7-3.1-1.1-1.4-.4-2.5-.8-3.4-1.1-.9-.4-1.6-.9-2.3-1.6-.6-.7-1-1.7-1-2.9s.3-1.9.9-2.7c.6-.8,1.4-1.5,2.5-1.9,1.1-.5,2.3-.7,3.7-.7,2.1,0,3.8.5,5,1.6,1.3,1.1,2,2.5,2.1,4.3h-3.8c0-.8-.4-1.5-1-2-.6-.5-1.4-.8-2.4-.8s-1.8.2-2.3.6c-.5.4-.8.9-.8,1.5s.2.9.5,1.3c.4.3.8.6,1.3.8.5.2,1.3.4,2.3.7,1.3.3,2.4.7,3.3,1.1.9.4,1.6.9,2.2,1.6.6.7.9,1.6,1,2.8,0,1.1-.3,2-.9,2.8-.6.8-1.4,1.5-2.4,1.9-1.1.5-2.3.7-3.7.7Z"/>
  <path class="st0" d="M151.9,7.6c2.5,0,4.6.5,6.5,1.4,1.9.9,3.3,2.3,4.3,4.1,1,1.8,1.5,3.8,1.5,6.2s-.5,4.4-1.5,6.1c-1,1.7-2.4,3.1-4.3,4-1.9.9-4,1.4-6.5,1.4h-7.6V7.6h7.6ZM151.9,27.7c2.7,0,4.8-.7,6.2-2.2,1.4-1.5,2.2-3.5,2.2-6.2s-.7-4.8-2.2-6.3c-1.4-1.5-3.5-2.3-6.2-2.3h-3.8v17h3.8Z"/>
  <path class="st0" d="M184.9,21.2c0,.7,0,1.3-.1,1.9h-14c.1,1.5.7,2.7,1.6,3.5,1,.9,2.2,1.3,3.6,1.3,2,0,3.5-.9,4.3-2.6h4.1c-.6,1.7-1.6,3.1-3,4.2-1.5,1.1-3.3,1.6-5.4,1.6s-3.3-.4-4.7-1.2c-1.4-.8-2.5-1.9-3.3-3.3-.8-1.4-1.2-3.1-1.2-5s.4-3.5,1.1-5c.8-1.4,1.9-2.5,3.3-3.3,1.4-.8,3-1.2,4.8-1.2s3.3.4,4.6,1.1c1.4.8,2.4,1.8,3.2,3.2.8,1.4,1.1,2.9,1.1,4.7ZM180.9,20c0-1.4-.5-2.5-1.5-3.4-1-.8-2.2-1.3-3.6-1.3s-2.4.4-3.4,1.3c-.9.8-1.5,2-1.7,3.4h10.2Z"/>
  <path class="st0" d="M20.1,66.8l-4.9-8.8h-1.4v8.8h-5.7v-23.4h9.6c1.8,0,3.4.3,4.7,1,1.3.6,2.3,1.5,2.9,2.6.7,1.1,1,2.4,1,3.8s-.4,2.9-1.3,4.2c-.9,1.2-2.2,2.1-3.9,2.6l5.4,9.3h-6.4ZM13.9,54h3.5c1,0,1.8-.3,2.3-.8.5-.5.8-1.2.8-2.2s-.3-1.6-.8-2.1c-.5-.5-1.3-.8-2.3-.8h-3.5v5.8Z"/>
  <path class="st0" d="M47.5,57.2c0,.5,0,1.1,0,1.7h-12.9c0,1.2.4,2,1.1,2.6.7.6,1.5.9,2.4.9,1.4,0,2.4-.6,3-1.8h6.1c-.3,1.2-.9,2.3-1.7,3.3-.8,1-1.8,1.7-3,2.3-1.2.6-2.6.8-4.1.8s-3.4-.4-4.9-1.2c-1.4-.8-2.5-1.9-3.3-3.3-.8-1.4-1.2-3.1-1.2-5.1s.4-3.6,1.2-5.1c.8-1.4,1.9-2.6,3.3-3.3,1.4-.8,3.1-1.2,4.9-1.2s3.4.4,4.8,1.1c1.4.8,2.5,1.8,3.3,3.2.8,1.4,1.2,3,1.2,4.9ZM41.7,55.7c0-1-.3-1.8-1-2.3-.7-.6-1.5-.9-2.5-.9s-1.8.3-2.4.8c-.7.6-1.1,1.3-1.2,2.4h7.1Z"/>
  <path class="st0" d="M68.9,48.2v18.6h-5.7v-2.5c-.6.8-1.4,1.5-2.4,2-1,.5-2.1.8-3.3.8s-2.7-.3-3.8-1c-1.1-.6-1.9-1.6-2.5-2.8-.6-1.2-.9-2.6-.9-4.2v-10.9h5.7v10.1c0,1.2.3,2.2,1,2.9.7.7,1.5,1,2.6,1s2-.3,2.6-1c.7-.7,1-1.7,1-2.9v-10.1h5.7Z"/>
  <path class="st0" d="M84.3,48c2.2,0,3.9.7,5.2,2.1,1.3,1.4,2,3.3,2,5.8v10.9h-5.7v-10.1c0-1.3-.3-2.2-1-2.9-.6-.7-1.5-1-2.6-1s-2,.3-2.6,1c-.6.7-1,1.6-1,2.9v10.1h-5.7v-18.6h5.7v2.5c.6-.8,1.4-1.5,2.3-1.9,1-.5,2.1-.7,3.3-.7Z"/>
  <path class="st0" d="M98.3,46.3c-1,0-1.8-.3-2.5-.9-.6-.6-.9-1.3-.9-2.2s.3-1.6.9-2.2c.6-.6,1.5-.9,2.5-.9s1.8.3,2.4.9c.6.6,1,1.3,1,2.2s-.3,1.6-1,2.2c-.6.6-1.4.9-2.4.9ZM101.1,48.2v18.6h-5.7v-18.6h5.7Z"/>
  <path class="st0" d="M113.7,67.1c-1.8,0-3.5-.4-4.9-1.2-1.5-.8-2.6-1.9-3.4-3.3-.8-1.4-1.3-3.1-1.3-5.1s.4-3.6,1.3-5c.8-1.5,2-2.6,3.5-3.4,1.5-.8,3.1-1.2,4.9-1.2s3.5.4,4.9,1.2c1.5.8,2.6,1.9,3.5,3.4.8,1.5,1.3,3.1,1.3,5s-.4,3.6-1.3,5.1c-.8,1.5-2,2.6-3.5,3.4-1.5.8-3.1,1.2-4.9,1.2ZM113.7,62.2c1.1,0,2-.4,2.8-1.2.8-.8,1.2-2,1.2-3.5s-.4-2.6-1.1-3.4c-.7-.8-1.7-1.2-2.8-1.2s-2,.4-2.8,1.2c-.7.8-1.1,1.9-1.1,3.4s.4,2.7,1.1,3.5c.7.8,1.6,1.2,2.7,1.2Z"/>
  <path class="st0" d="M137.9,48c2.2,0,3.9.7,5.2,2.1,1.3,1.4,2,3.3,2,5.8v10.9h-5.7v-10.1c0-1.3-.3-2.2-1-2.9-.6-.7-1.5-1-2.6-1s-2,.3-2.6,1c-.6.7-1,1.6-1,2.9v10.1h-5.7v-18.6h5.7v2.5c.6-.8,1.4-1.5,2.3-1.9,1-.5,2.1-.7,3.3-.7Z"/>
  <path class="st0" d="M166.5,57.2c0,.5,0,1.1,0,1.7h-12.9c0,1.2.4,2,1.1,2.6.7.6,1.5.9,2.4.9,1.4,0,2.4-.6,3-1.8h6.1c-.3,1.2-.9,2.3-1.7,3.3-.8,1-1.8,1.7-3,2.3-1.2.6-2.6.8-4.1.8s-3.4-.4-4.9-1.2c-1.4-.8-2.5-1.9-3.3-3.3-.8-1.4-1.2-3.1-1.2-5.1s.4-3.6,1.2-5.1c.8-1.4,1.9-2.6,3.3-3.3,1.4-.8,3.1-1.2,4.9-1.2s3.4.4,4.8,1.1c1.4.8,2.5,1.8,3.3,3.2.8,1.4,1.2,3,1.2,4.9ZM160.7,55.7c0-1-.3-1.8-1-2.3-.7-.6-1.5-.9-2.5-.9s-1.8.3-2.4.8c-.7.6-1.1,1.3-1.2,2.4h7.1Z"/>
  <path class="st0" d="M177.1,67.1c-1.6,0-3.1-.3-4.4-.8-1.3-.6-2.3-1.3-3-2.3-.7-1-1.1-2.1-1.2-3.3h5.6c0,.6.4,1.2.9,1.6.5.4,1.2.6,2,.6s1.3-.1,1.7-.4c.4-.3.6-.6.6-1.1s-.3-.9-.8-1.2c-.6-.3-1.5-.6-2.7-.9-1.3-.3-2.4-.6-3.3-1-.9-.3-1.7-.9-2.3-1.6-.6-.8-1-1.8-1-3s.3-2,.9-2.9c.6-.9,1.5-1.6,2.6-2.1,1.2-.5,2.5-.8,4.1-.8,2.3,0,4.2.6,5.5,1.7,1.3,1.2,2.1,2.7,2.3,4.6h-5.3c0-.6-.4-1.1-.9-1.5-.5-.4-1.1-.6-1.9-.6s-1.2.1-1.5.4c-.3.3-.5.6-.5,1s.3.9.9,1.2c.6.3,1.4.5,2.6.8,1.4.4,2.5.7,3.4,1.1.9.3,1.6.9,2.3,1.7.7.8,1,1.8,1,3.1,0,1.1-.3,2.1-.9,2.9-.6.8-1.5,1.5-2.6,2-1.1.5-2.5.7-4,.7Z"/>
</svg>